<svg xmlns="http://www.w3.org/2000/svg" viewBox="0 0 256 316"><style>.st0,.st1{fill:#ffd600;stroke:#000;stroke-width:.5}.st1{fill:#ee343f}</style><g id="svg_1"><path id="svg_2" d="m189.65375,101.85c10.37,0 18.04,0 21.23,0c-0.04,8 -0.17,19.41 -0.54,28.69c23.31,-27.48 39.89,-60.3 44.65,-69.78c-9.34,4.43 -37.61,18.52 -65.34,41.09z" class="st0"/><g id="svg_3"><path id="svg_4" d="m180.05375,265.55c-6.13,5.54 -12.29,10.71 -18.71,15.75l6.92,6.92c7.81,-9.93 16.21,-19.53 25.19,-28.76l41.26,41.25c-1.05,3.44 -0.23,7.25 2.48,9.97c3.92,3.92 10.29,3.92 14.21,0c3.92,-3.93 3.92,-10.28 0,-14.21c-2.68,-2.68 -6.5,-3.53 -9.9,-2.55l-41.28,-41.23c9.22,-8.98 18.8,-17.36 28.71,-25.16l-6.91,-6.9c-5.05,6.41 -10.26,12.61 -15.8,18.74" class="st0"/><path id="svg_5" d="m170.83375,256.33c0.27,0.27 9.21,9.23 9.21,9.23s9.1,-8.45 13.47,-12.81c4.34,-4.35 12.71,-13.37 12.71,-13.37s-14.12,-14.13 -15.08,-15.08c-4.81,10.45 -12.25,22.24 -20.31,32.03z" class="st0"/><path id="svg_6" d="m75.30375,265.55c6.13,5.54 12.29,10.71 18.7,15.75l-6.92,6.92c-7.81,-9.93 -16.2,-19.53 -25.19,-28.76l-41.26,41.25c1.04,3.43 0.23,7.24 -2.49,9.96c-3.92,3.92 -10.28,3.92 -14.2,0c-3.92,-3.93 -3.93,-10.28 0,-14.21c2.68,-2.68 6.5,-3.53 9.9,-2.55l41.27,-41.23c-9.21,-8.98 -18.8,-17.36 -28.71,-25.16l6.9,-6.9c5.05,6.41 10.26,12.61 15.8,18.74" class="st0"/><path id="svg_7" d="m85.07375,255.77c-1.46,1.46 -9.77,9.78 -9.77,9.78s-9.11,-8.45 -13.47,-12.81c-4.35,-4.35 -12.71,-13.37 -12.71,-13.37s13.09,-13.09 15.77,-15.74c4.79,10.57 12.09,22.23 20.18,32.14z" class="st0"/></g><path id="svg_8" d="m66.87375,101.84c-11.33,0 -19.22,0 -21.23,0c0.02,9.83 0.16,19.42 0.52,28.68c-23.29,-27.47 -39.89,-60.27 -44.65,-69.76c9.33,4.43 37.62,18.5 65.36,41.08z" class="st0"/><g id="svg_9"><path id="svg_10" d="m45.62375,101.86c9.45,0 148.54,0 165.25,0c-0.19,81.06 -8.75,142.3 -82.61,192.5c-74.22,-50.2 -82.47,-111.25 -82.64,-192.5z" class="st1"/></g><g id="svg_11"><g id="svg_12"><g id="svg_13"><path id="svg_14" d="m128.49375,129.44c-0.36,-0.41 -1.39,-1.48 -1.55,-1.64c-6.9,-0.26 -5.29,-0.18 -7.32,-1.36c-0.47,-0.07 -0.93,0.98 -0.7,1.47c1.69,1.37 0.82,1.24 9.57,1.53" fill="#fed600" stroke="#000" stroke-width=".5"/><g id="svg_15"><path id="svg_16" d="m163.58375,146.17c-0.32,-0.16 -0.51,-0.3 -0.69,-0.48c0.41,-1.1 2.44,-5.8 5.96,-10.21c-1.28,-21.77 30.21,-20.67 29.62,1.47c-0.53,12.92 -12.47,21.55 -20.14,31.32c7.3,-1.47 7.84,1.78 14.33,0.1c0.31,0.31 0.47,1.26 0.47,1.26c-4.9,2.44 -19.8,9.17 -19.8,9.17l-0.15,0.97c7.37,-2.73 10.16,1.32 16.09,-0.32c0.15,0.41 0.41,1.29 0.41,1.29l-17.09,7.61c0,0.38 0.05,0.9 0.05,0.9c4.2,-1.34 6.43,2.03 12.51,1.15c0.17,0.44 0.36,1.15 0.36,1.15l-12.01,5.55c0,7.82 16.53,31.25 -4.78,39.74c-14.04,3.82 -21.72,-9.35 -28.19,-19.86c-0.3,-4.76 -0.58,-9.03 -0.87,-11.37c-0.63,-1.78 -1.1,-2.9 -1.1,-2.9c-0.05,-0.05 -0.13,0 -0.1,0.08c0.22,0.56 1.03,2.6 1.06,2.84c0.15,0.3 1.01,10.63 1.11,21.13c0.19,2.15 1.28,11.46 1.55,11.74c0.36,0.35 2.2,1.79 2.2,2.1c0.26,1.11 -0.3,6.43 -1.07,7.24c-1.06,1.23 -1.37,0.73 -1.34,3.05c0.14,4.1 -1.72,17.45 -1.08,22.36c-0.18,0.18 -0.81,0.6 -1.15,0.6c-2.95,-1.75 -2.88,-4.61 -7.73,-0.4c1.08,4.1 3.7,4.96 -1.28,7.47c-0.27,1.03 0.23,3.81 0.37,4.59c-2.24,0.57 -4.14,-5.31 -4.38,-6.39c0,-1.19 1.34,-4.47 1.34,-5.13c-0.41,-0.41 -0.62,-0.44 -0.62,-0.44c-0.46,0.32 -3.26,3.78 -4.29,3.78c-1.21,-0.3 -2.63,-1.11 -3.48,-2.13c-1.69,0.49 -3.91,2.85 -3.91,2.85c-0.85,-2.72 0.76,-3.93 4.33,-7.05c0.89,-0.44 4.98,-0.68 5.32,-1.03c0.15,-0.14 0.37,-0.69 0.25,-0.75c-1.35,-0.58 -5.28,-2.54 -5.28,-3.3c0,-1.13 0.03,-2.5 1.01,-3.61c-0.59,-1.02 -2.13,-2.42 -3.99,-3.62c2.67,-1.91 4.8,0.53 8.79,2.23c1.1,2.16 1.93,5.85 2.91,6.26c0.21,0.33 2.13,-0.05 3.24,-0.9c2.01,-4.67 -1.08,-22.23 -1.7,-24.51c-0.02,-0.08 -0.05,-0.14 -0.05,-0.19c-2.44,-5.98 -12.77,-11.88 -16.62,-20.7c-0.48,-3.35 -1.19,-7.5 -0.53,-9.17c4.13,-6.64 10.24,-7.96 14.89,-18.18c-0.08,-0.08 -0.03,-0.06 -0.17,-0.06c-4.31,9.95 -9.95,10.91 -14.86,18.14c-0.73,2.64 0.42,8.04 0.57,9.34c0.73,1.78 2.79,5.15 4.74,7.1c-1.9,4.78 -4.96,5.31 -3.93,10.04c-8.16,3.24 -6.2,3.83 -11.2,0.18c-10.39,-1.48 -13.45,-4.36 -19.87,-3.68c-0.39,-0.16 -0.74,-0.68 -0.86,-1.18c2.33,-2.32 3.66,-2.22 0.65,-6.91c-3.67,2.32 -3.08,2.09 -7.22,1.52c-4.03,-1.65 -3.68,-0.88 -4.36,-3.37c1.54,0.34 2.38,0.7 4.03,0.46c0.56,-3.45 0.17,-2.94 5.91,-3.11c0.08,-0.28 0.09,-0.33 0,-0.81c-5.88,-1.7 -5.05,-0.99 -5.31,-2.91c0.08,-1.59 0.32,-0.95 0.93,-2.42c-1.12,-0.92 -1.08,-1.25 -4.19,-2.12c1.49,-1.58 1.38,-1.01 4.95,-0.65c2.88,0.52 4.5,1.33 7.31,6.29c0.24,0 0.46,-0.03 0.65,-0.11c0.1,-0.72 0.15,-3.96 1.08,-5.12c0.75,-0.32 2.69,-0.22 2.99,-0.19c0.92,-1.6 0.67,-3.15 0.6,-4.7c2.51,1.64 1.96,2.59 2.23,4.47c-0.47,6.09 0.36,4.21 -4.03,8.88c0.29,0.64 1.3,4.29 1.3,4.94c1.54,0.63 11.57,0.86 14.42,1.21c-1.01,-2.03 -0.54,-4.69 1.24,-15.23c2.07,-8.46 1.21,-6.52 8.11,-10.53c1,-0.57 7.55,-2.46 7.35,-3.08c-1.25,-3.94 -1.23,-10.04 -6.17,-14.34c-1.1,-1.23 -2.52,-4.47 -2.79,-5.59c1.6,-1.93 11.17,-13.82 11.17,-13.82c0.03,-0.08 -0.05,-0.1 -0.05,-0.1l-25.72,31.89c-1.04,0 -1.33,-0.33 -1.37,-1.58c-0.22,-2.21 -0.39,-2.66 -4.24,-2.74c-1.42,2.25 -1.86,3.07 -3.44,4.94c-1.31,1.55 -1.37,0.95 -3.27,0.62c0,1.25 0.28,10.41 0,10.41c-0.47,0.13 -3.48,0.22 -3.98,0l0,-9.71c-0.79,-0.11 -2.13,2.46 -2.66,2.62c-0.21,-0.2 -0.61,-1.27 -0.61,-1.69c1.25,-2.79 0.97,-3.48 3.27,-5.59l0,-5.16c-1.28,-0.4 -1.54,0.4 -2.39,-2.75c0.2,-1.63 -0.82,-1.22 -1.71,-1.58c-0.61,-0.18 -2.54,0.11 -3.31,0.09c0.85,-2.05 1.28,-1.75 2.5,-2.07c2.12,-0.83 3.1,-0.64 4.92,-0.91l0,-31.35c-1.08,0.97 -0.35,1.47 -4.17,-0.05c-2.51,1.56 -2.67,2.93 -3.54,3.96c-1.79,-2.4 -0.01,-4.14 0.86,-5.83c2.21,-4.2 3.86,-3.55 6.86,-4.89l0,-0.62c-1.08,-0.39 -2.79,-0.58 -4.05,-0.95c-0.38,-0.92 -0.88,-1.59 -1.07,-3.98c-1.97,-0.77 -2.03,-0.51 -4.96,-0.51c1.29,-2.63 0.86,-1.78 4.83,-2.47c1.75,0 3.36,-0.48 5.26,0.96l0,-20.12c0.41,-0.11 3.52,-0.12 3.98,0l0,22.24c0.43,0.23 1.25,0.9 1.31,0.6c0.08,-0.84 0.73,-4.59 1.1,-4.84c0.71,-0.47 1.88,-0.83 2.98,-0.97c0.56,-0.67 0.64,-2.58 0.99,-4.66c2.3,0.38 1.77,3.14 2.21,4.46c-0.11,3.95 0.86,2.7 -3.67,8.56c1.41,1.73 1.97,0.8 3.45,1.39c1.05,2.22 4.27,2.81 12.4,7.32c-0.88,2.94 -1.94,10.72 -2.3,11.69c-1.53,-1.14 -12.82,-11.08 -13.45,-11.16c-0.69,-0.14 -1.88,-0.22 -2.43,-0.22c-1.16,-0.87 -1.14,-0.63 0.7,-2.9c-0.53,-0.39 -3,-1.9 -3.29,-2.05l0,37.09c0.42,0.51 2.92,2.59 3.27,2.59c0.19,-0.05 0.59,-0.32 0.64,-0.56c-0.32,-0.54 -2.23,-3.64 -2.31,-4.17c0.4,-0.9 0.32,-1.8 1.91,-3.22c-0.31,-2.88 -1.27,-2.83 -1.93,-4.55c2.32,-0.24 1.58,0.03 4.29,2.42c2.37,4.43 2.29,1.87 2.29,11.14c0.32,0.32 1.52,0.91 1.89,0.82c1.26,-2.22 12.52,-21.6 11.78,-21.6c-1.13,-0.14 -3.02,0.05 -4.38,0c1.94,-4.1 2.33,-15.87 4.8,-17.74c10.25,-9.01 15.4,-11.87 23.57,-12.75c2.16,-0.27 2.32,-0.49 3.25,-2.79c0.44,-0.43 -6.98,-0.15 -7.75,-0.36c0.34,-1.1 1.63,-2.49 2.08,-3.51c-3.21,-3.53 -1.38,-0.8 -3.24,-7.22c0.88,-0.69 5.46,-4.37 5.85,-4.87c0.71,0.15 19.74,4.69 20.31,4.69c1.74,0.11 3.25,0.37 2.97,2.34c-0.13,2.51 -1.77,3.56 -2.62,4.8c1.04,15.91 -11.61,27.79 -11.12,35.11c-1.11,-0.17 -1.85,-0.75 -2.65,-0.97c0,1.86 -0.57,30.62 -0.11,31.64c4.13,3.66 10.96,24.01 16.24,31.68c9.83,14.8 30.24,4.12 15.55,-17.05c-6.58,-13.25 -26.21,-28.86 2.91,-47.8c16.21,-11.58 18.38,-14.33 20.79,-20.68c5.2,-21.21 -21.49,-22.09 -19.29,-8.08c6.15,1.63 5.11,-1.03 8.29,7.87c0,2.41 -1.18,9.04 -1.62,9.87c-0.22,0.22 -0.55,0.22 -1.03,0.22c-0.45,-5.08 -1.99,-6.56 -2.72,-8.32c-0.26,-0.17 -0.91,-0.27 -0.83,0c0.67,2.5 1.04,3.51 0,6.87c-3.65,3.65 -15.77,10.56 -19.11,16.2c-0.31,0 -0.88,-0.2 -1.03,-0.35c1.89,-7.08 10.81,-17.1 12.53,-20.69c0,-0.46 0.14,-2.25 0.03,-2.68c-0.13,-0.3 -3.64,1.9 -5.46,4.31" class="st0"/><path id="svg_17" d="m129.84375,127.95c0.17,0.59 0.56,1.54 0.75,1.68c0.58,0.14 6.72,0.24 6.72,0.24s-0.63,-1.72 -0.73,-1.73c-0.7,-0.07 -6.45,-0.27 -6.74,-0.19z" class="st1"/><path id="svg_18" d="m128.70375,123.41c-0.32,0.32 -1.08,0.64 -1.46,0.64c-0.07,-0.14 -0.17,-0.3 -0.15,-0.6c0.41,-0.05 1.08,-0.37 1.46,-0.63c0.14,0.27 0.16,0.47 0.15,0.59z" class="st1"/><path id="svg_19" d="m149.62375,124.16c0.68,-0.34 1.41,-1.07 3.07,-0.13c0.26,1.53 -0.38,1.6 -1.74,3.19l0,-0.27c0.59,-0.78 1.83,-1.34 1.47,-2.8c-0.55,-0.28 -1,-0.92 -2.68,0.16c-0.04,-0.04 -0.04,0.01 -0.12,-0.15z" class="st1"/><path id="svg_20" d="m140.85375,121.82c-0.03,-0.19 0.05,-0.1 -0.19,-0.42c-1.07,-0.38 -6.08,-1.62 -7.67,-1.93c-0.3,0.15 -1.97,1.21 -2.14,1.41c0,0.2 0.05,0.22 0.2,0.22c0.15,0 1.46,-1.09 2.03,-1.36c0,0 0.69,0.17 1.16,0.31c-0.55,0.12 -1.03,0.61 -1.08,1.06c-0.09,0.64 0.48,1.16 1.45,1.3c0.96,0.12 1.74,-0.22 1.83,-0.87c0.04,-0.35 -0.19,-0.92 -0.61,-1.18c1.09,0.13 4.63,1.07 5.02,1.46z" class="st1"/><path id="svg_21" d="m125.78375,147.32c-11.5,0.75 -8.91,-0.66 -16.11,11c-0.09,0 -0.04,-0.06 -0.07,-0.12c7.17,-11.74 4.74,-10.25 16.25,-10.99c0.02,0.03 -0.05,0.09 -0.07,0.11z" fill="none" stroke="#000" stroke-width=".5"/><path id="svg_22" d="m85.64375,190.45l0,2.25c0.22,0.08 2.45,-1.05 2.69,-1.32c0.05,-0.35 0.02,-0.67 -0.13,-0.82c-0.14,-0.14 -2.45,-0.23 -2.56,-0.11z" fill="#ef3e42" stroke="#000" stroke-width=".5"/><path id="svg_23" d="m131.46375,117.09c-0.05,-0.39 -1.06,-8.05 -1.23,-9.42c2.27,-0.25 2.87,1.78 3.02,2.19c5.09,-2.71 4.44,6.05 0.22,2.99c-0.15,0.04 -0.23,0.13 -0.24,0.25c0.87,1.76 1.3,2.01 3.8,2.61c1.99,0.46 3.21,0.02 4.37,-0.93c-0.06,-0.15 -0.16,-0.34 -0.16,-0.34c-4.08,1.42 -3.46,-5.25 0.38,-3.18c0.95,-2.1 4.03,-1.79 4.22,0.9c4.46,0.05 1.72,6.12 -1.11,2.98c-0.13,0.05 -0.24,0.12 -0.29,0.24c1,1.81 1.19,2.44 3.44,2.93c2.28,0.64 3.25,0.12 4.28,-0.51c0.04,-0.09 0,-0.25 -0.08,-0.35c-5.2,0.52 -1.37,-7.34 1.68,-2.45c1.57,-1.42 2.88,-0.98 3.7,-0.39c-0.75,1 -4.98,6.59 -5.51,7.27c-4.35,-1.01 -16,-3.72 -20.49,-4.79z" class="st0"/></g></g></g><path id="svg_24" d="m88.20375,128.57c-13.53,0.06 -12.94,-1.73 -23.01,10.08c-4.17,-6.46 -7.39,-19.5 -6.85,-27.59c13.81,9.91 16,10.11 29.86,10.11c0,2.11 0.03,5.95 0,7.4z" fill="#fff" stroke="#000" stroke-width=".5"/></g><g id="svg_25"><path id="svg_26" d="m189.65375,101.86c1.19,-7.29 6.38,-28.31 8.04,-32.76c-5.21,-2.45 -11.26,-1.49 -11.79,2.51c-10.09,-9.43 -28.21,-13.26 -57.71,-13.26c-22.49,0 -43.75,1.63 -57.57,13.22c-0.57,-3.97 -6.59,-4.92 -11.78,-2.47c1.66,4.45 6.85,25.47 8.04,32.76c2.6,0 122.77,0 122.77,0z" class="st1"/><g id="svg_27"><g id="svg_28"><path id="svg_29" d="m189.65375,101.86c1.19,-7.29 6.38,-28.31 8.04,-32.76c-7.25,-3.41 -16.12,-0.22 -9.48,8.6l-0.73,0.73c-15.44,-16.12 -15.44,19.84 0,3.64c0.3,0.3 0.73,0.73 0.73,0.73c-1.29,2.5 -5.18,7.85 -6.03,8.48c-4.19,1.72 -9.69,1.95 -14.52,0c-1.8,-1.43 -5.01,-7.59 -5.53,-9.7c0,0 0.49,-0.48 0.58,-0.57c14.3,14.3 14.3,-18.49 0,-4.19c0,0 -0.36,-0.36 -0.58,-0.58c14.76,-14.75 -19.97,-14.75 -5.38,0c-0.21,0.22 -0.58,0.58 -0.58,0.58c-14.3,-14.3 -14.3,18.49 0,4.19c0.09,0.09 0.44,0.43 0.58,0.57c-0.52,2.11 -3.73,8.27 -5.52,9.7c-5.07,1.6 -9.48,1.68 -14.52,0c-2.32,-1.73 -5.59,-8.45 -6.17,-10.4c0.14,-0.14 0.5,-0.5 0.67,-0.66c15.03,16.77 15.03,-20.4 0,-3.61l-0.67,-0.66c17.09,-15.76 -21.53,-15.76 -4.44,0l-0.67,0.66c-15.03,-16.78 -15.03,20.39 0,3.61c0.17,0.17 0.53,0.53 0.67,0.66c-0.58,1.95 -3.85,8.66 -6.17,10.4c-4.49,1.6 -9.17,1.8 -13.87,0c-1.8,-1.43 -5.71,-7.59 -6.23,-9.7c0.14,-0.14 0.48,-0.48 0.58,-0.57c14.3,14.3 14.3,-18.49 0,-4.19c0,0 -0.36,-0.36 -0.58,-0.58c14.59,-14.75 -20.14,-14.75 -5.38,0c-0.22,0.22 -0.58,0.58 -0.58,0.58c-14.3,-14.3 -14.3,18.49 0,4.19c0.08,0.09 0.44,0.43 0.58,0.57c-0.51,2.11 -3.73,8.27 -5.52,9.7c-4.65,1.95 -10.96,1.72 -14.59,0c-0.85,-0.63 -4.74,-5.98 -6.03,-8.48c0,0 0.43,-0.43 0.73,-0.73c15.44,16.2 15.44,-19.76 0,-3.64l-0.73,-0.73c6.64,-8.82 -2.23,-12.01 -9.48,-8.6c1.66,4.45 6.85,25.47 8.04,32.76l122.78,0z" class="st0"/><g id="svg_30"><path id="svg_31" d="m131.33375,24.29c5.57,1.46 9.61,6.34 9.61,12.25c0,6.98 -5.68,12.63 -12.68,12.63c-7,0 -12.67,-5.65 -12.67,-12.63c0,-5.93 4.19,-10.96 9.64,-12.26c0,-1.31 0,-9.91 0,-9.91l-7,0l0,-5.93l7,0l0,-7.44l6.11,0c0,0.96 0,7.44 0,7.44l7.01,0l0,5.93l-7.01,0c-0.01,0.83 -0.01,9.58 -0.01,9.92z" class="st0"/><path id="svg_32" d="m140.53375,33.37c0,0 0.47,1.75 0.41,3.2c0.04,1.21 -0.35,2.92 -0.35,2.92l-24.66,0c0,0 -0.38,-1.72 -0.34,-2.92c-0.07,-1.41 0.41,-3.2 0.41,-3.2l9.22,0l0,-9.07c0,0 1.99,-0.37 3.04,-0.37c1.05,0 3.06,0.37 3.06,0.37l0,9.06l9.21,0l0,0.01z" class="st0"/></g><g id="svg_33"><g id="svg_34"><path id="svg_35" d="m125.37375,64.55c1.81,-0.53 3.98,-0.56 5.8,-0.03l1.02,-15.96l-0.2,0.05c0,0 -1.48,0.54 -3.72,0.54c-1.64,0.08 -3.36,-0.42 -3.82,-0.57c-0.07,-0.02 -0.14,-0.04 -0.14,-0.04l1.06,16.01z" class="st0"/></g><path id="svg_36" d="m124.33375,48.57c-37.72,-4.88 -34.24,-3.42 -30.82,17.31c1.75,-0.77 4.02,-0.92 5.94,-0.42c-2.18,-16.11 -4.39,-16.12 25.15,-12.76c-0.08,-1.72 -0.27,-4.13 -0.27,-4.13z" class="st0"/><path id="svg_37" d="m131.93375,52.76c29.93,-3.75 26.9,-2.7 24.9,12.79c1.87,-0.53 4.1,-0.51 5.86,0.17c2.91,-19.61 8.53,-22.33 -30.49,-17.13l-0.27,4.17z" class="st0"/><path id="svg_38" d="m188.36375,68.47c1.66,-0.8 3.96,-0.92 6.35,-0.39c4.87,-18.75 5.46,-19.9 -31.19,-19.9c1.09,1.09 1.36,2.69 1.22,4.86c27.29,0 27.57,-0.46 23.62,15.43z" class="st0"/><path id="svg_39" d="m91.54375,53.04c-0.08,-2.19 0.23,-3.78 1.3,-4.86c-34.19,0.49 -36.47,-0.48 -31.06,19.91c2.39,-0.54 4.71,-0.39 6.39,0.38c-4,-16.13 -3.37,-15.43 23.37,-15.43z" class="st0"/></g></g></g></g></g></svg>